<svg xmlns="http://www.w3.org/2000/svg" width="9" height="14" viewBox="0 0 9 14" fill="none">
<path d="M7.33337 1.9987C7.79361 1.9987 8.1667 1.6256 8.1667 1.16536C8.1667 0.705127 7.79361 0.332031 7.33337 0.332031C6.87313 0.332031 6.50004 0.705127 6.50004 1.16536C6.50004 1.6256 6.87313 1.9987 7.33337 1.9987Z" fill="#667085"/>
<path d="M7.33337 7.83203C7.79361 7.83203 8.1667 7.45893 8.1667 6.9987C8.1667 6.53846 7.79361 6.16536 7.33337 6.16536C6.87313 6.16536 6.50004 6.53846 6.50004 6.9987C6.50004 7.45893 6.87313 7.83203 7.33337 7.83203Z" fill="#667085"/>
<path d="M7.33337 13.6654C7.79361 13.6654 8.1667 13.2923 8.1667 12.832C8.1667 12.3718 7.79361 11.9987 7.33337 11.9987C6.87313 11.9987 6.50004 12.3718 6.50004 12.832C6.50004 13.2923 6.87313 13.6654 7.33337 13.6654Z" fill="#667085"/>
<path d="M1.50004 1.9987C1.96027 1.9987 2.33337 1.6256 2.33337 1.16536C2.33337 0.705127 1.96027 0.332031 1.50004 0.332031C1.0398 0.332031 0.666702 0.705127 0.666702 1.16536C0.666702 1.6256 1.0398 1.9987 1.50004 1.9987Z" fill="#667085"/>
<path d="M1.50004 7.83203C1.96027 7.83203 2.33337 7.45893 2.33337 6.9987C2.33337 6.53846 1.96027 6.16536 1.50004 6.16536C1.0398 6.16536 0.666702 6.53846 0.666702 6.9987C0.666702 7.45893 1.0398 7.83203 1.50004 7.83203Z" fill="#667085"/>
<path d="M1.50004 13.6654C1.96027 13.6654 2.33337 13.2923 2.33337 12.832C2.33337 12.3718 1.96027 11.9987 1.50004 11.9987C1.0398 11.9987 0.666702 12.3718 0.666702 12.832C0.666702 13.2923 1.0398 13.6654 1.50004 13.6654Z" fill="#667085"/>
<path d="M7.33337 1.9987C7.79361 1.9987 8.1667 1.6256 8.1667 1.16536C8.1667 0.705127 7.79361 0.332031 7.33337 0.332031C6.87313 0.332031 6.50004 0.705127 6.50004 1.16536C6.50004 1.6256 6.87313 1.9987 7.33337 1.9987Z" stroke="#667085" stroke-width="0.416667" stroke-linecap="round" stroke-linejoin="round"/>
<path d="M7.33337 7.83203C7.79361 7.83203 8.1667 7.45893 8.1667 6.9987C8.1667 6.53846 7.79361 6.16536 7.33337 6.16536C6.87313 6.16536 6.50004 6.53846 6.50004 6.9987C6.50004 7.45893 6.87313 7.83203 7.33337 7.83203Z" stroke="#667085" stroke-width="0.416667" stroke-linecap="round" stroke-linejoin="round"/>
<path d="M7.33337 13.6654C7.79361 13.6654 8.1667 13.2923 8.1667 12.832C8.1667 12.3718 7.79361 11.9987 7.33337 11.9987C6.87313 11.9987 6.50004 12.3718 6.50004 12.832C6.50004 13.2923 6.87313 13.6654 7.33337 13.6654Z" stroke="#667085" stroke-width="0.416667" stroke-linecap="round" stroke-linejoin="round"/>
<path d="M1.50004 1.9987C1.96027 1.9987 2.33337 1.6256 2.33337 1.16536C2.33337 0.705127 1.96027 0.332031 1.50004 0.332031C1.0398 0.332031 0.666702 0.705127 0.666702 1.16536C0.666702 1.6256 1.0398 1.9987 1.50004 1.9987Z" stroke="#667085" stroke-width="0.416667" stroke-linecap="round" stroke-linejoin="round"/>
<path d="M1.50004 7.83203C1.96027 7.83203 2.33337 7.45893 2.33337 6.9987C2.33337 6.53846 1.96027 6.16536 1.50004 6.16536C1.0398 6.16536 0.666702 6.53846 0.666702 6.9987C0.666702 7.45893 1.0398 7.83203 1.50004 7.83203Z" stroke="#667085" stroke-width="0.416667" stroke-linecap="round" stroke-linejoin="round"/>
<path d="M1.50004 13.6654C1.96027 13.6654 2.33337 13.2923 2.33337 12.832C2.33337 12.3718 1.96027 11.9987 1.50004 11.9987C1.0398 11.9987 0.666702 12.3718 0.666702 12.832C0.666702 13.2923 1.0398 13.6654 1.50004 13.6654Z" stroke="#667085" stroke-width="0.416667" stroke-linecap="round" stroke-linejoin="round"/>
</svg>