<svg xmlns="http://www.w3.org/2000/svg" width="12" height="10" viewBox="0 0 12 10" fill="none">
<path fill-rule="evenodd" clip-rule="evenodd" d="M11.549 0.570543L11.2277 0.303103C10.6944 -0.140939 9.89288 -0.0914431 9.42199 0.414445L4.04678 6.1886L2.42425 4.83476C1.89146 4.39022 1.08985 4.43872 0.618403 4.94407L0.334303 5.24863C0.103911 5.49547 -0.0157134 5.82108 0.00165897 6.15369C0.0192026 6.4861 0.172275 6.79818 0.427454 7.02129L3.40163 9.65992C3.65913 9.89419 4.00423 10.0164 4.35696 9.99823C4.7097 9.98015 5.03948 9.82315 5.26989 9.56375L11.6865 2.3406C11.9107 2.08823 12.0222 1.75996 11.9963 1.42805C11.9705 1.09589 11.8097 0.787491 11.549 0.570543Z" fill="white"/>
</svg>