<svg xmlns="http://www.w3.org/2000/svg" id="trash" width="16" height="18" viewBox="0 0 16 18" fill="none">
<path d="M1.33333 4.83333H14.6667M6.33333 8.16667V13.1667M9.66666 8.16667V13.1667M2.16666 4.83333L2.99999 14.8333C2.99999 15.2754 3.17559 15.6993 3.48815 16.0118C3.80071 16.3244 4.22463 16.5 4.66666 16.5H11.3333C11.7754 16.5 12.1993 16.3244 12.5118 16.0118C12.8244 15.6993 13 15.2754 13 14.8333L13.8333 4.83333M5.49999 4.83333V2.33333C5.49999 2.11232 5.58779 1.90036 5.74407 1.74408C5.90035 1.5878 6.11231 1.5 6.33333 1.5H9.66666C9.88768 1.5 10.0996 1.5878 10.2559 1.74408C10.4122 1.90036 10.5 2.11232 10.5 2.33333V4.83333" stroke="" stroke-width="1.66667" stroke-linecap="round" stroke-linejoin="round"/>
</svg>